<?xml version="1.0" standalone="no"?>
<!DOCTYPE svg PUBLIC "-//W3C//DTD SVG 20010904//EN"
 "http://www.w3.org/TR/2001/REC-SVG-20010904/DTD/svg10.dtd">
<svg version="1.0" xmlns="http://www.w3.org/2000/svg"
 width="1280.000000pt" height="640.000000pt" viewBox="0 0 1280.000000 640.000000"
 preserveAspectRatio="xMidYMid meet">
<g transform="translate(0.000000,640.000000) scale(0.100000,-0.100000)"
fill="#607d8b" stroke="none">
<path d="M11405 5959 c-229 -35 -409 -122 -541 -260 -101 -107 -236 -312 -236
-358 0 -14 -15 -64 -33 -111 -47 -122 -66 -224 -72 -395 -2 -82 -9 -161 -14
-175 -7 -19 -5 -36 6 -63 22 -53 22 -418 0 -441 -23 -22 -34 -60 -41 -135 l-7
-69 42 -44 c31 -35 38 -48 29 -55 -12 -9 -357 -105 -953 -264 -121 -32 -285
-77 -365 -99 -80 -21 -170 -46 -200 -54 -30 -8 -206 -55 -390 -104 -184 -50
-371 -100 -415 -112 -44 -12 -118 -32 -165 -45 -68 -19 -665 -179 -990 -265
-36 -9 -288 -77 -560 -150 -272 -73 -526 -141 -565 -151 -38 -10 -270 -72
-515 -137 -245 -66 -634 -170 -865 -232 -231 -61 -611 -163 -845 -225 -234
-63 -459 -123 -500 -133 -41 -11 -735 -196 -1541 -411 -944 -252 -1484 -391
-1514 -391 -26 0 -71 -7 -101 -16 l-54 -15 0 -148 c0 -147 0 -148 29 -187 15
-22 43 -52 61 -68 29 -24 40 -27 72 -22 41 7 51 0 107 -74 28 -36 193 -123
226 -118 19 3 20 13 25 153 5 154 10 175 37 175 8 0 308 83 667 184 1239 351
2389 663 4571 1241 237 63 1388 366 2560 674 1172 308 2248 592 2393 631 145
38 273 70 284 70 11 0 63 -16 114 -35 145 -55 180 -60 245 -42 68 20 118 53
244 163 139 120 158 131 255 150 299 56 565 276 711 588 41 88 98 272 129 421
43 198 35 387 -20 503 -100 211 -469 474 -870 617 -99 36 -113 38 -240 41 -74
1 -162 -2 -195 -7z"/>
</g>
</svg>
