<?xml version="1.0" standalone="no"?>
<!DOCTYPE svg PUBLIC "-//W3C//DTD SVG 20010904//EN"
 "http://www.w3.org/TR/2001/REC-SVG-20010904/DTD/svg10.dtd">
<svg version="1.0" xmlns="http://www.w3.org/2000/svg"
 width="1280.000000pt" height="1120.000000pt" viewBox="0 0 1280.000000 1120.000000"
 preserveAspectRatio="xMidYMid meet">
<g transform="translate(0.000000,1120.000000) scale(0.100000,-0.100000)"
fill="#000000" stroke="none">
<path d="M7765 10724 c-257 -26 -376 -48 -540 -101 -261 -84 -454 -201 -646
-392 -218 -217 -338 -433 -415 -746 -39 -160 -54 -307 -54 -523 1 -358 52
-604 181 -867 75 -153 168 -282 289 -401 124 -124 245 -209 405 -288 277 -137
535 -190 920 -190 234 0 341 10 524 51 614 135 1054 543 1226 1137 56 197 70
308 70 596 0 232 -3 280 -23 389 -39 218 -125 441 -232 606 -260 397 -650 634
-1170 709 -109 16 -449 29 -535 20z m395 -809 c117 -29 207 -80 290 -164 161
-163 230 -390 230 -752 0 -274 -34 -459 -113 -624 -129 -267 -354 -388 -692
-372 -212 11 -357 68 -481 192 -148 147 -224 364 -240 684 -18 357 68 664 236
844 98 105 220 171 369 203 84 17 311 11 401 -11z"/>
<path d="M10540 8140 c-49 -9 -205 -79 -330 -148 -125 -69 -1363 -782 -1635
-941 -228 -134 -426 -235 -635 -326 -204 -88 -263 -120 -326 -178 -165 -150
-102 -320 132 -357 157 -25 320 18 614 165 210 104 365 199 715 439 422 289
583 398 629 426 34 21 37 21 28 4 -22 -42 -250 -282 -1203 -1269 -547 -567
-1730 -1793 -2629 -2725 -899 -932 -1741 -1804 -1870 -1938 -129 -133 -243
-258 -254 -278 -32 -60 -18 -88 93 -197 104 -103 126 -113 185 -86 14 7 193
188 398 403 206 215 1552 1626 2993 3135 1440 1510 2621 2739 2623 2733 2 -6
-4 -38 -13 -69 -34 -120 -190 -554 -253 -703 -71 -171 -82 -233 -48 -284 22
-35 89 -65 142 -66 102 0 236 72 298 163 47 68 114 238 176 447 83 280 125
416 199 655 133 426 218 772 208 847 -13 95 -131 168 -237 148z"/>
<path d="M4680 7524 c-394 -53 -737 -236 -1006 -535 -221 -246 -354 -546 -411
-926 -24 -166 -24 -534 0 -693 60 -391 197 -683 428 -917 312 -316 724 -463
1294 -463 442 0 817 69 1113 205 59 27 84 44 88 60 8 32 0 702 -9 711 -4 4
-69 -22 -145 -59 -223 -107 -412 -156 -684 -177 -409 -32 -719 57 -899 258
-92 104 -174 314 -167 429 l3 48 1097 3 1098 2 6 27 c12 46 -4 590 -21 716
-28 213 -74 373 -155 542 -72 150 -142 248 -265 371 -188 190 -376 296 -639
360 -214 52 -507 67 -726 38z m404 -699 c200 -42 329 -165 394 -375 23 -76 45
-237 40 -295 l-3 -40 -618 -3 c-541 -2 -618 0 -623 13 -3 8 2 50 11 92 56 253
209 470 396 562 46 23 104 45 129 50 71 14 199 12 274 -4z"/>
<path d="M10540 6313 c-515 -516 -2019 -2023 -3344 -3349 -1450 -1452 -2406
-2416 -2402 -2423 4 -6 26 -21 49 -34 l42 -22 3245 0 3245 0 42 23 c24 12 55
41 70 64 l28 42 3 3265 c1 1796 0 3280 -3 3298 -3 17 -13 41 -23 53 -17 20
-32 6 -952 -917z m141 -798 c46 -20 62 -34 93 -79 l26 -39 0 -2099 c0 -2297 5
-2132 -60 -2195 -52 -50 -105 -66 -203 -61 -96 5 -132 21 -181 81 l-31 39 -3
2114 c-2 2307 -7 2136 55 2198 15 16 42 35 58 42 42 19 203 18 246 -1z m-1125
-1554 c50 -23 81 -53 105 -106 18 -38 19 -95 19 -1355 0 -1254 -1 -1317 -19
-1355 -22 -49 -65 -93 -108 -111 -20 -9 -70 -14 -131 -14 -93 0 -101 2 -145
31 -29 19 -53 46 -66 73 -21 42 -21 49 -21 1371 l0 1329 21 43 c23 47 70 89
116 103 54 16 185 11 229 -9z m-1106 -783 c24 -13 58 -40 74 -61 l31 -39 3
-953 2 -952 -32 -49 c-21 -29 -50 -57 -78 -72 -40 -21 -55 -23 -145 -20 -90 3
-104 6 -141 31 -22 15 -50 45 -62 66 l-22 39 2 955 3 955 31 39 c48 61 103 83
204 83 69 0 94 -4 130 -22z m-1039 -663 c23 -16 52 -48 63 -70 21 -39 21 -54
24 -646 l2 -606 -28 -54 c-20 -39 -41 -62 -77 -84 -45 -28 -55 -30 -144 -30
-115 0 -159 18 -206 84 l-30 43 -3 624 c-2 599 -2 625 17 661 21 43 51 73 96
97 23 13 53 16 137 14 100 -3 109 -5 149 -33z"/>
<path d="M2295 4124 c-495 -38 -840 -167 -1066 -401 -130 -133 -203 -264 -246
-438 -21 -87 -23 -358 -4 -454 47 -235 178 -428 384 -564 163 -108 347 -189
680 -298 245 -80 354 -130 427 -196 61 -55 89 -109 90 -172 0 -136 -90 -231
-268 -280 -344 -95 -822 -16 -1228 205 -45 24 -86 44 -93 44 -8 0 -11 -107
-11 -405 l0 -405 23 -14 c12 -8 74 -30 137 -49 305 -92 682 -135 1031 -116
602 32 1028 223 1251 560 114 171 152 308 152 544 0 173 -13 255 -57 365 -80
198 -242 359 -484 483 -147 75 -239 112 -503 202 -391 133 -509 216 -527 365
-22 186 147 303 457 317 262 12 568 -52 808 -169 48 -24 90 -44 95 -46 9 -5 9
769 -1 784 -16 24 -325 92 -539 118 -121 15 -419 27 -508 20z"/>
</g>
</svg>
