<?xml version="1.0" standalone="no"?>
<!DOCTYPE svg PUBLIC "-//W3C//DTD SVG 20010904//EN"
 "http://www.w3.org/TR/2001/REC-SVG-20010904/DTD/svg10.dtd">
<svg version="1.0" xmlns="http://www.w3.org/2000/svg"
 width="1280.000000pt" height="720.000000pt" viewBox="0 0 1280.000000 720.000000"
 preserveAspectRatio="xMidYMid meet">
<g transform="translate(0.000000,720.000000) scale(0.100000,-0.100000)"
fill="#000000" stroke="none">
<path d="M2561 6354 c-124 -33 -227 -121 -284 -241 -31 -65 -32 -74 -32 -188
0 -108 3 -125 26 -175 36 -77 98 -151 158 -189 28 -18 51 -38 51 -43 0 -12
-457 -888 -470 -902 -4 -4 -34 0 -67 10 -94 29 -247 24 -348 -10 -252 -86
-409 -306 -409 -571 0 -161 56 -302 163 -414 269 -279 717 -244 929 73 69 103
93 177 99 307 4 86 2 120 -16 189 -11 46 -17 88 -13 92 14 14 415 168 438 168
11 0 29 -10 40 -21 45 -51 118 -61 188 -27 l45 22 68 -65 c357 -338 398 -379
387 -396 -5 -9 -255 -142 -554 -297 -1003 -518 -1192 -617 -1216 -632 -38 -26
-78 -117 -71 -166 5 -38 95 -222 269 -553 79 -149 115 -180 211 -180 l62 0
857 443 c472 244 862 440 868 437 6 -4 10 -195 10 -549 l0 -544 -117 -4 c-139
-5 -187 -24 -230 -90 -27 -40 -28 -47 -28 -167 0 -108 3 -131 20 -160 36 -60
84 -91 161 -102 43 -6 1439 -8 3689 -7 3352 3 3622 4 3650 20 40 22 81 66 94
101 6 16 11 80 11 143 0 93 -4 122 -19 152 -41 80 -92 104 -241 111 l-115 6
-5 1827 -5 1826 -31 39 c-17 21 -46 47 -65 58 -34 20 -54 20 -2132 23 l-2098
2 -97 70 c-121 87 -342 199 -485 245 -190 61 -314 80 -542 79 -168 0 -218 -3
-315 -23 -271 -54 -514 -159 -719 -311 l-77 -57 -87 -5 c-76 -4 -93 -8 -129
-34 -64 -45 -80 -81 -88 -193 -6 -96 -6 -96 -62 -181 -76 -116 -140 -247 -184
-377 -20 -59 -42 -114 -48 -121 -11 -12 -541 -162 -572 -162 -9 0 -30 11 -48
25 -18 13 -56 30 -84 37 -39 9 -54 17 -57 32 -3 12 -21 125 -40 251 -20 127
-45 287 -56 358 -12 70 -19 134 -16 141 3 7 35 27 71 44 87 41 163 117 207
207 33 68 34 74 34 190 0 114 -2 124 -31 185 -94 196 -303 298 -503 244z
m3050 -600 c510 -85 946 -451 1118 -937 77 -218 100 -476 62 -696 -53 -313
-183 -564 -406 -786 -211 -211 -457 -341 -760 -401 -128 -26 -385 -26 -520 0
-301 56 -549 188 -765 405 -129 130 -194 219 -268 366 -94 188 -138 358 -149
571 -34 722 472 1346 1200 1479 104 19 373 18 488 -1z m-2919 -269 c25 0 49
-3 53 -7 7 -7 26 -121 91 -547 l36 -235 -26 -19 c-35 -25 -57 -70 -65 -131
l-6 -50 -210 -83 c-115 -45 -220 -83 -231 -83 -15 0 -32 15 -54 50 -37 57
-133 150 -190 183 -22 12 -42 27 -44 33 -3 9 415 823 460 895 4 8 27 9 73 3
36 -5 87 -9 113 -9z m7716 -1738 l2 -1557 -3027 2 -3028 3 -3 328 c-2 279 0
327 12 327 8 0 50 -22 93 -49 189 -117 393 -195 626 -238 116 -21 436 -24 547
-4 382 67 693 221 958 476 57 55 138 145 178 200 104 140 109 145 220 194 55
25 304 136 554 248 l455 204 42 -21 c23 -12 65 -25 95 -29 l53 -6 112 -350
c61 -192 112 -358 112 -367 1 -10 -23 -34 -58 -57 -178 -121 -240 -351 -148
-545 158 -332 612 -332 770 1 30 64 32 75 32 178 0 103 -2 114 -32 178 -40 85
-124 174 -199 212 -31 16 -58 34 -61 42 -4 10 258 800 303 911 l13 32 113 0
c134 0 202 15 302 68 138 72 243 207 287 367 27 99 23 233 -10 337 -59 185
-224 339 -416 388 -310 79 -617 -100 -711 -415 -37 -124 -20 -295 42 -417 13
-26 21 -53 19 -60 -6 -13 -373 -230 -401 -236 -7 -2 -28 7 -46 19 -19 14 -50
24 -82 26 -51 4 -60 1 -127 -49 -14 -10 -81 34 -435 281 -231 162 -431 305
-446 319 -16 14 -28 33 -28 43 0 47 -88 283 -155 415 -41 81 -72 151 -69 156
3 4 800 7 1772 6 l1767 -3 3 -1558z m-6768 981 c0 -13 -7 -61 -15 -107 -8 -46
-18 -130 -21 -187 -6 -91 -9 -104 -25 -104 -22 0 -451 181 -473 199 -19 16
-21 67 -3 78 17 11 487 141 515 142 16 1 22 -5 22 -21z m3920 -385 c391 -273
433 -308 401 -327 -5 -3 -150 30 -322 74 -173 45 -348 87 -389 96 -41 8 -82
17 -91 19 -13 5 -17 30 -23 148 -3 78 -9 172 -12 210 -6 58 -5 67 10 67 9 0
201 -129 426 -287z m-4213 51 c126 -53 233 -102 240 -108 17 -16 38 -253 24
-270 -34 -41 -46 -33 -292 206 -232 223 -268 268 -219 268 11 0 122 -43 247
-96z m5406 -169 c46 -43 95 -78 152 -106 57 -28 85 -48 85 -59 0 -15 -153
-471 -278 -830 l-37 -105 -115 -7 c-63 -4 -118 -4 -121 0 -8 9 -229 706 -229
722 0 6 12 27 27 47 21 28 28 50 32 106 l6 72 190 112 c105 61 197 112 205
112 8 1 46 -28 83 -64z m-1468 -74 c50 -11 221 -53 380 -94 268 -68 291 -76
305 -100 11 -19 12 -31 5 -43 -9 -14 -219 -112 -560 -260 -82 -36 -223 -99
-313 -140 -89 -41 -167 -74 -172 -74 -18 0 -11 25 31 111 73 149 134 353 160
533 11 79 22 98 53 91 11 -3 62 -14 111 -24z"/>
<path d="M4318 4612 c-20 -2 -41 -9 -47 -15 -5 -7 -17 -53 -25 -103 -9 -50
-23 -113 -31 -140 -8 -27 -15 -64 -15 -81 0 -18 -4 -33 -10 -33 -5 0 -10 15
-10 34 0 19 -5 47 -11 63 -6 15 -14 79 -19 141 -4 63 -12 118 -18 124 -8 8
-29 8 -69 2 l-58 -9 -9 -46 c-19 -98 44 -384 110 -496 19 -34 33 -45 67 -54
116 -32 140 -10 142 126 1 77 22 185 35 185 12 0 27 -50 40 -137 12 -80 35
-158 53 -180 13 -18 220 -18 235 0 6 7 18 44 28 82 9 39 23 82 30 97 8 15 14
41 14 58 0 17 7 47 17 68 9 20 15 43 14 50 -3 21 51 202 61 202 4 0 13 -12 18
-26 17 -44 60 -222 60 -247 0 -13 7 -38 15 -55 9 -17 27 -75 41 -129 14 -54
30 -102 35 -108 6 -6 68 -11 139 -11 l130 -1 0 28 c0 72 59 259 81 259 11 0
36 -76 55 -165 25 -119 16 -112 150 -120 92 -6 118 -5 129 6 8 8 32 79 55 159
23 80 50 161 60 180 10 19 23 54 29 78 6 23 16 61 22 83 9 36 13 40 24 28 16
-16 58 -164 105 -364 18 -77 37 -145 44 -152 7 -8 52 -13 126 -14 136 -2 135
-2 150 113 11 92 40 208 50 208 16 0 32 -69 39 -176 5 -61 11 -117 15 -123 10
-16 110 -14 150 3 70 29 156 301 156 489 0 45 -4 88 -9 96 -5 7 -31 16 -58 18
l-50 5 -7 -113 c-6 -107 -20 -215 -32 -249 -9 -27 -22 10 -29 80 -9 104 -36
247 -48 263 -7 9 -23 16 -37 17 -57 5 -156 -1 -169 -9 -8 -5 -21 -54 -32 -120
-10 -61 -25 -127 -34 -147 -8 -20 -15 -48 -15 -63 0 -14 -4 -32 -9 -40 -7 -11
-10 -10 -15 6 -4 11 -4 28 0 37 4 9 -1 36 -9 59 -9 23 -21 85 -27 137 -13 116
-16 127 -39 135 -33 10 -442 8 -452 -2 -6 -6 -17 -77 -25 -159 -9 -82 -20
-153 -25 -159 -20 -20 -38 25 -63 160 -14 76 -31 145 -38 151 -9 8 -54 14
-128 15 l-115 3 -12 -36 c-7 -20 -22 -92 -34 -160 -35 -201 -58 -195 -90 23
-11 79 -25 151 -30 160 -7 14 -34 16 -229 14 -122 -1 -225 -6 -229 -11 -5 -5
-16 -76 -26 -159 -21 -178 -33 -236 -45 -214 -9 16 -43 202 -55 302 -5 38 -13
60 -24 66 -19 10 -111 17 -163 13z m1045 -295 c3 -8 1 -20 -4 -28 -6 -10 -9
-7 -9 14 0 29 5 35 13 14z"/>
</g>
</svg>
